<?xml version="1.0" encoding="UTF-8"?>
<svg width="1022px" height="223px" style="background-color:white;" viewBox="0 0 1022 223" version="1.1" xmlns="http://www.w3.org/2000/svg" xmlns:xlink="http://www.w3.org/1999/xlink">
    <title>Combined Shape</title>
    <g id="Brand" stroke="none" stroke-width="1" fill="none" fill-rule="evenodd">
        <g transform="translate(-169.000000, -655.000000)" fill="#152229" id="Combined-Shape">
            <path d="M390.398682,743.346039 L390.398682,788.979248 L230.137573,788.979248 L230.137573,832.648499 L390.398682,832.648499 L390.398682,877.524628 L169.137573,877.524628 L169.137573,743.346039 L390.398682,743.346039 Z M479.662048,656 L479.662048,743.346039 L611.408447,743.346039 L611.408447,656 L656.141052,656 L656.141052,877.524628 L611.408447,877.524628 L611.408447,788.917358 L479.662048,788.917358 L479.662048,877.524628 L435.810181,877.524628 L435.810181,656 L479.662048,656 Z M856.699158,656 C875.51229,656.857133 876.37081,657.411819 891.0224,663.734146 C915.588692,674.334779 921.833193,701.31893 922.462158,721.642578 C923.894592,767.928609 895.205709,790.350555 836.395508,788.908417 L939.181763,877.524628 L871.192566,877.524628 L766.453857,788.908417 L701.449768,788.908417 L701.449768,744.525452 L846.989624,744.004059 C867.854451,742.060862 878.286865,734.607035 878.286865,721.642578 C878.286865,708.678121 868.057597,701.66039 847.59906,700.589386 L701.449768,700.589386 L701.449768,656 C741.310259,655.505474 774.064236,655.253266 799.711698,655.243375 L802.816686,655.243375 C827.884024,655.253266 845.844848,655.505474 856.699158,656 Z M1190.66669,655.243073 L1094.14212,877.524628 L1045.98785,877.524628 L950.082001,655.481064 L998.396149,655.243073 L1070.23569,821.726379 L1142.31503,655.243073 L1190.66669,655.243073 Z M390,656 L390,701 L169,701 L169,656 L390,656 Z"></path>
        </g>
    </g>
</svg>