<svg version="1.1" id="Layer_1" xmlns="http://www.w3.org/2000/svg" xmlns:xlink="http://www.w3.org/1999/xlink" x="0px" y="0px"
	 width="100%" viewBox="0 0 600 200" enable-background="new 0 0 600 200" xml:space="preserve">
<path fill="#FDFEFF" opacity="1.000000" stroke="none" 
	d="
M428.000000,201.000000 
	C285.377747,201.000000 143.255508,201.000000 1.066629,201.000000 
	C1.066629,134.398636 1.066629,67.797195 1.066629,1.097874 
	C200.999985,1.097874 400.999969,1.097874 600.972900,1.097874 
	C600.972900,67.744423 600.972900,134.372223 600.972900,201.000000 
	C543.463928,201.000000 485.981964,201.000000 428.000000,201.000000 
M330.157471,107.494797 
	C330.211792,111.653648 330.091705,115.823578 330.354828,119.969177 
	C331.012299,130.327789 335.732117,136.719589 345.861755,138.537628 
	C352.581238,139.743622 359.759613,139.529648 366.586639,138.720184 
	C375.733063,137.635727 381.300018,131.520462 384.054810,122.933807 
	C387.077667,113.511459 387.049133,103.862061 384.917206,94.335548 
	C382.088928,81.697380 375.434052,75.952637 362.330444,75.087997 
	C356.494110,74.702888 350.568054,75.678253 343.891174,76.084267 
	C343.891174,66.024895 343.891174,55.839291 343.891174,45.702118 
	C338.875031,45.702118 334.663269,45.702118 330.157623,45.702118 
	C330.157623,66.256958 330.157623,86.376862 330.157471,107.494797 
M244.080261,131.556763 
	C247.754730,139.146729 253.617538,141.186020 262.139648,137.705002 
	C261.722137,136.645691 261.384552,135.543060 260.872681,134.528336 
	C255.479950,123.837784 250.251160,113.057304 244.547333,102.534599 
	C242.416321,98.603203 242.715164,96.076286 246.020355,93.105064 
	C250.470032,89.105011 254.491699,84.626671 258.662231,80.319870 
	C259.718536,79.229057 260.642792,78.010361 261.839203,76.601341 
	C252.569260,74.753166 244.969559,75.388252 239.942810,83.823372 
	C238.602325,86.072784 236.494049,87.868683 234.714691,89.851631 
	C231.674484,93.239685 228.615677,96.611038 225.564667,99.989395 
	C225.196747,99.833595 224.828812,99.677795 224.460876,99.522003 
	C224.460876,81.648987 224.460876,63.775978 224.460876,45.283272 
	C221.581573,45.283272 219.301788,45.289883 217.022034,45.282017 
	C210.417465,45.259239 210.408386,45.256958 210.407410,51.657940 
	C210.403473,77.480957 210.329208,103.304314 210.441803,129.126846 
	C210.489273,140.018646 208.133530,138.719604 220.786972,138.840851 
	C220.953537,138.842453 221.193222,138.911438 221.275681,138.827728 
	C222.348572,137.738403 224.220581,136.689743 224.310486,135.510330 
	C224.664062,130.872513 224.901184,126.138206 224.349075,121.539673 
	C223.542542,114.822006 227.902512,111.859627 232.602890,108.034981 
	C236.489990,115.987053 240.128479,123.430496 244.080261,131.556763 
M423.447113,126.921501 
	C430.118500,142.905899 457.497101,142.829453 466.564850,133.741898 
	C469.921204,130.378204 472.515320,125.659538 473.937531,121.086273 
	C476.745819,112.055992 476.440460,102.667831 474.277649,93.436478 
	C472.114990,84.205688 466.667908,77.433960 457.180267,76.093018 
	C450.284241,75.118362 442.936371,75.616722 436.038208,76.848526 
	C428.615936,78.173912 424.087402,83.737434 421.984833,90.958946 
	C418.530945,102.821838 418.785126,114.599106 423.447113,126.921501 
M274.360138,132.075897 
	C280.629700,139.720596 289.296265,139.948730 298.079559,139.655563 
	C312.255707,139.182373 319.828186,131.486710 319.971130,117.269539 
	C320.095032,104.944397 320.016296,92.617065 319.990204,80.290779 
	C319.987518,79.024002 319.732422,77.757744 319.546051,76.046913 
	C316.941620,76.046913 314.604401,76.318863 312.354218,75.991936 
	C307.212891,75.244957 305.838043,77.257103 306.008514,82.328812 
	C306.394348,93.808807 306.242249,105.313622 306.051331,116.804054 
	C305.908813,125.382355 302.381073,129.033218 294.913422,129.007370 
	C287.250244,128.980850 284.320160,125.710442 283.991577,116.776787 
	C283.936493,115.279533 283.972839,113.778786 283.972748,112.279655 
	C283.971985,101.619019 284.055176,90.956985 283.874146,80.299438 
	C283.850067,78.880600 282.625366,76.383705 281.720947,76.270554 
	C278.026489,75.808380 274.240448,76.077858 270.301239,76.077858 
	C270.301239,91.818527 270.087799,106.784653 270.468719,121.735634 
	C270.551880,124.999809 272.757812,128.209885 274.360138,132.075897 
M513.153625,138.834717 
	C525.897522,137.335358 532.474854,129.697678 531.954712,117.002747 
	C531.529846,106.635429 523.016357,99.307281 511.158081,99.144180 
	C507.159515,99.089188 503.138031,99.365631 499.170227,99.009506 
	C497.402496,98.850845 495.180908,97.941307 494.138367,96.610359 
	C491.120483,92.757698 493.917419,88.047302 499.375488,87.829819 
	C505.316162,87.593117 511.273560,87.776085 517.820007,87.776085 
	C517.820007,85.067673 517.636780,82.930779 517.860657,80.837440 
	C518.248352,77.212257 517.070190,75.716904 513.178894,75.964935 
	C508.033813,76.292885 502.847534,75.909187 497.687897,76.088501 
	C487.924561,76.427803 481.005341,83.563423 481.022400,93.053261 
	C481.039520,102.578941 488.874084,110.618813 498.378479,110.781425 
	C503.209595,110.864082 508.047791,110.681427 512.874023,110.857803 
	C517.730530,111.035271 520.417297,114.213280 520.138733,119.046700 
	C519.854431,123.979385 517.037292,126.525032 511.486176,126.564362 
	C501.527374,126.634933 491.567688,126.584267 481.450806,126.584267 
	C481.450806,130.943436 481.450806,134.643921 481.450806,138.850754 
	C491.964539,138.850754 502.096893,138.850754 513.153625,138.834717 
M395.853546,119.499519 
	C395.853546,125.759666 395.853546,132.019806 395.853546,138.551346 
	C400.538879,138.551346 404.610168,138.551346 409.142487,138.551346 
	C409.279602,136.364746 409.503448,134.421173 409.507233,132.477188 
	C409.536499,117.355324 409.666931,102.231613 409.479401,87.112022 
	C409.320343,74.288261 412.160431,76.032310 397.615784,76.104424 
	C397.175049,76.106613 396.736115,76.459534 395.853485,76.839668 
	C395.853485,90.651474 395.853485,104.575623 395.853546,119.499519 
M86.425583,137.033142 
	C83.402542,142.785980 84.473000,148.020920 88.682556,152.656906 
	C92.212029,156.543915 98.151909,157.779465 102.914291,155.925476 
	C108.492500,153.753891 112.039375,148.497513 111.795967,142.763077 
	C111.568245,137.397919 107.814468,132.276489 102.884651,130.604996 
	C96.784271,128.536621 91.235161,130.542648 86.425583,137.033142 
M158.006653,99.585632 
	C164.971512,101.110191 170.444839,99.167778 173.684906,94.021584 
	C176.675354,89.271896 176.482620,83.421921 173.191360,79.041298 
	C169.674454,74.360313 164.414001,72.577103 158.574936,74.086555 
	C153.190460,75.478500 149.033417,80.179955 148.786514,85.978287 
	C148.520142,92.233551 151.471085,96.780861 158.006653,99.585632 
M156.063660,68.611374 
	C160.341156,64.279663 161.546295,59.238186 159.299393,53.554523 
	C157.346100,48.613541 153.447540,45.990185 148.301178,45.373226 
	C142.552200,44.684025 136.791367,48.142067 134.587784,53.310768 
	C132.281570,58.720177 133.703613,65.074852 138.045853,68.763763 
	C143.078201,73.038948 149.189346,73.138046 156.063660,68.611374 
M104.682327,106.202347 
	C99.439682,113.880440 100.452400,121.742310 107.263428,126.239807 
	C113.566017,130.401566 121.981194,128.636856 126.096840,122.290352 
	C129.604919,116.880707 128.571976,109.352509 123.728546,105.030037 
	C118.481422,100.347275 111.724136,100.579216 104.682327,106.202347 
M178.467987,127.996918 
	C185.977921,125.523636 189.994598,119.305183 188.452850,112.538788 
	C186.787094,105.228241 179.855408,100.482498 172.851868,101.857635 
	C165.857849,103.230904 160.830994,110.036636 161.814133,116.801376 
	C162.933929,124.506508 169.251770,129.014755 178.467987,127.996918 
M122.604103,98.002853 
	C129.751404,101.632866 136.298157,100.666565 140.526947,95.357422 
	C144.494736,90.375961 144.455460,83.149101 140.434555,78.359253 
	C135.466980,72.441711 126.486687,71.863113 120.918488,77.101845 
	C114.950211,82.716980 115.375671,91.063606 122.604103,98.002853 
M91.494247,75.883034 
	C90.740662,76.533661 89.899940,77.107483 89.247780,77.847496 
	C85.311317,82.314247 84.672287,88.560936 87.580124,93.607834 
	C90.372734,98.454750 96.275299,101.213615 101.561409,100.142700 
	C107.718399,98.895355 112.052521,94.402565 112.600334,88.235359 
	C113.040894,83.275665 111.290985,79.024231 107.142845,76.101746 
	C102.329826,72.710846 97.253403,72.722130 91.494247,75.883034 
M83.466805,128.551208 
	C84.447464,128.391724 85.443649,128.296234 86.406303,128.062576 
	C93.782295,126.272255 98.041199,119.547852 96.441925,112.258553 
	C94.838745,104.951431 88.085663,100.524902 80.746941,101.970757 
	C74.434784,103.214363 70.092590,108.546837 70.057251,115.098335 
	C70.018112,122.352318 74.166275,126.762970 83.466805,128.551208 
M408.881683,63.327766 
	C409.240631,62.411877 410.045959,61.401649 409.876007,60.597546 
	C409.335602,58.040611 408.925140,53.776810 407.571381,53.402508 
	C404.211273,52.473461 400.095947,52.627438 396.831909,53.831581 
	C395.572327,54.296265 395.174622,58.878155 395.584137,61.388500 
	C395.813324,62.793613 398.400024,64.585823 400.101746,64.800873 
	C402.750977,65.135651 405.551117,64.276283 408.881683,63.327766 
z"/>
<path fill="#0DA2E1" opacity="1.000000" stroke="none" 
	d="
M330.157532,106.995789 
	C330.157623,86.376862 330.157623,66.256958 330.157623,45.702118 
	C334.663269,45.702118 338.875031,45.702118 343.891174,45.702118 
	C343.891174,55.839291 343.891174,66.024895 343.891174,76.084267 
	C350.568054,75.678253 356.494110,74.702888 362.330444,75.087997 
	C375.434052,75.952637 382.088928,81.697380 384.917206,94.335548 
	C387.049133,103.862061 387.077667,113.511459 384.054810,122.933807 
	C381.300018,131.520462 375.733063,137.635727 366.586639,138.720184 
	C359.759613,139.529648 352.581238,139.743622 345.861755,138.537628 
	C335.732117,136.719589 331.012299,130.327789 330.354828,119.969177 
	C330.091705,115.823578 330.211792,111.653648 330.157532,106.995789 
M344.017822,119.041214 
	C344.910370,121.451561 345.135101,124.571915 346.811584,126.148781 
	C353.894653,132.810944 368.329254,129.147537 370.709076,119.756851 
	C372.263794,113.621819 372.457794,106.922508 372.046539,100.554413 
	C371.192780,87.333565 358.626984,81.417847 347.459839,88.786652 
	C345.740662,89.921074 344.211792,92.639992 344.110962,94.700317 
	C343.729431,102.493011 343.972412,110.316292 344.017822,119.041214 
z"/>
<path fill="#0AA1E1" opacity="1.000000" stroke="none" 
	d="
M243.923615,131.215363 
	C240.128479,123.430496 236.489990,115.987053 232.602890,108.034981 
	C227.902512,111.859627 223.542542,114.822006 224.349075,121.539673 
	C224.901184,126.138206 224.664062,130.872513 224.310486,135.510330 
	C224.220581,136.689743 222.348572,137.738403 221.275681,138.827728 
	C221.193222,138.911438 220.953537,138.842453 220.786972,138.840851 
	C208.133530,138.719604 210.489273,140.018646 210.441803,129.126846 
	C210.329208,103.304314 210.403473,77.480957 210.407410,51.657940 
	C210.408386,45.256958 210.417465,45.259239 217.022034,45.282017 
	C219.301788,45.289883 221.581573,45.283272 224.460876,45.283272 
	C224.460876,63.775978 224.460876,81.648987 224.460876,99.522003 
	C224.828812,99.677795 225.196747,99.833595 225.564667,99.989395 
	C228.615677,96.611038 231.674484,93.239685 234.714691,89.851631 
	C236.494049,87.868683 238.602325,86.072784 239.942810,83.823372 
	C244.969559,75.388252 252.569260,74.753166 261.839203,76.601341 
	C260.642792,78.010361 259.718536,79.229057 258.662231,80.319870 
	C254.491699,84.626671 250.470032,89.105011 246.020355,93.105064 
	C242.715164,96.076286 242.416321,98.603203 244.547333,102.534599 
	C250.251160,113.057304 255.479950,123.837784 260.872681,134.528336 
	C261.384552,135.543060 261.722137,136.645691 262.139648,137.705002 
	C253.617538,141.186020 247.754730,139.146729 243.923615,131.215363 
z"/>
<path fill="#0CA1E1" opacity="1.000000" stroke="none" 
	d="
M423.313385,126.568718 
	C418.785126,114.599106 418.530945,102.821838 421.984833,90.958946 
	C424.087402,83.737434 428.615936,78.173912 436.038208,76.848526 
	C442.936371,75.616722 450.284241,75.118362 457.180267,76.093018 
	C466.667908,77.433960 472.114990,84.205688 474.277649,93.436478 
	C476.440460,102.667831 476.745819,112.055992 473.937531,121.086273 
	C472.515320,125.659538 469.921204,130.378204 466.564850,133.741898 
	C457.497101,142.829453 430.118500,142.905899 423.313385,126.568718 
M461.850067,106.744865 
	C461.223969,102.490417 461.051941,98.103729 459.860901,94.013802 
	C458.241089,88.451576 454.081879,85.886345 448.172729,85.769264 
	C441.952911,85.646027 437.243286,88.103317 435.542297,93.509918 
	C432.575531,102.939819 432.593933,112.554558 436.387451,121.795044 
	C438.574402,127.122147 443.077026,129.402985 448.877502,128.979492 
	C454.447632,128.572830 458.389008,125.620857 459.895935,120.365036 
	C461.069916,116.270363 461.243835,111.888962 461.850067,106.744865 
z"/>
<path fill="#0DA2E2" opacity="1.000000" stroke="none" 
	d="
M274.173126,131.760391 
	C272.757812,128.209885 270.551880,124.999809 270.468719,121.735634 
	C270.087799,106.784653 270.301239,91.818527 270.301239,76.077858 
	C274.240448,76.077858 278.026489,75.808380 281.720947,76.270554 
	C282.625366,76.383705 283.850067,78.880600 283.874146,80.299438 
	C284.055176,90.956985 283.971985,101.619019 283.972748,112.279655 
	C283.972839,113.778786 283.936493,115.279533 283.991577,116.776787 
	C284.320160,125.710442 287.250244,128.980850 294.913422,129.007370 
	C302.381073,129.033218 305.908813,125.382355 306.051331,116.804054 
	C306.242249,105.313622 306.394348,93.808807 306.008514,82.328812 
	C305.838043,77.257103 307.212891,75.244957 312.354218,75.991936 
	C314.604401,76.318863 316.941620,76.046913 319.546051,76.046913 
	C319.732422,77.757744 319.987518,79.024002 319.990204,80.290779 
	C320.016296,92.617065 320.095032,104.944397 319.971130,117.269539 
	C319.828186,131.486710 312.255707,139.182373 298.079559,139.655563 
	C289.296265,139.948730 280.629700,139.720596 274.173126,131.760391 
z"/>
<path fill="#0FA3E2" opacity="1.000000" stroke="none" 
	d="
M512.691406,138.842743 
	C502.096893,138.850754 491.964539,138.850754 481.450806,138.850754 
	C481.450806,134.643921 481.450806,130.943436 481.450806,126.584267 
	C491.567688,126.584267 501.527374,126.634933 511.486176,126.564362 
	C517.037292,126.525032 519.854431,123.979385 520.138733,119.046700 
	C520.417297,114.213280 517.730530,111.035271 512.874023,110.857803 
	C508.047791,110.681427 503.209595,110.864082 498.378479,110.781425 
	C488.874084,110.618813 481.039520,102.578941 481.022400,93.053261 
	C481.005341,83.563423 487.924561,76.427803 497.687897,76.088501 
	C502.847534,75.909187 508.033813,76.292885 513.178894,75.964935 
	C517.070190,75.716904 518.248352,77.212257 517.860657,80.837440 
	C517.636780,82.930779 517.820007,85.067673 517.820007,87.776085 
	C511.273560,87.776085 505.316162,87.593117 499.375488,87.829819 
	C493.917419,88.047302 491.120483,92.757698 494.138367,96.610359 
	C495.180908,97.941307 497.402496,98.850845 499.170227,99.009506 
	C503.138031,99.365631 507.159515,99.089188 511.158081,99.144180 
	C523.016357,99.307281 531.529846,106.635429 531.954712,117.002747 
	C532.474854,129.697678 525.897522,137.335358 512.691406,138.842743 
z"/>
<path fill="#069FE1" opacity="1.000000" stroke="none" 
	d="
M395.853516,118.999649 
	C395.853485,104.575623 395.853485,90.651474 395.853485,76.839668 
	C396.736115,76.459534 397.175049,76.106613 397.615784,76.104424 
	C412.160431,76.032310 409.320343,74.288261 409.479401,87.112022 
	C409.666931,102.231613 409.536499,117.355324 409.507233,132.477188 
	C409.503448,134.421173 409.279602,136.364746 409.142487,138.551346 
	C404.610168,138.551346 400.538879,138.551346 395.853546,138.551346 
	C395.853546,132.019806 395.853546,125.759666 395.853516,118.999649 
z"/>
<path fill="#1179BB" opacity="1.000000" stroke="none" 
	d="
M86.623489,136.722534 
	C91.235161,130.542648 96.784271,128.536621 102.884651,130.604996 
	C107.814468,132.276489 111.568245,137.397919 111.795967,142.763077 
	C112.039375,148.497513 108.492500,153.753891 102.914291,155.925476 
	C98.151909,157.779465 92.212029,156.543915 88.682556,152.656906 
	C84.473000,148.020920 83.402542,142.785980 86.623489,136.722534 
z"/>
<path fill="#0F78BB" opacity="1.000000" stroke="none" 
	d="
M157.658875,99.446075 
	C151.471085,96.780861 148.520142,92.233551 148.786514,85.978287 
	C149.033417,80.179955 153.190460,75.478500 158.574936,74.086555 
	C164.414001,72.577103 169.674454,74.360313 173.191360,79.041298 
	C176.482620,83.421921 176.675354,89.271896 173.684906,94.021584 
	C170.444839,99.167778 164.971512,101.110191 157.658875,99.446075 
z"/>
<path fill="#0F78BA" opacity="1.000000" stroke="none" 
	d="
M155.762527,68.828766 
	C149.189346,73.138046 143.078201,73.038948 138.045853,68.763763 
	C133.703613,65.074852 132.281570,58.720177 134.587784,53.310768 
	C136.791367,48.142067 142.552200,44.684025 148.301178,45.373226 
	C153.447540,45.990185 157.346100,48.613541 159.299393,53.554523 
	C161.546295,59.238186 160.341156,64.279663 155.762527,68.828766 
z"/>
<path fill="#0F78BA" opacity="1.000000" stroke="none" 
	d="
M104.934860,105.934395 
	C111.724136,100.579216 118.481422,100.347275 123.728546,105.030037 
	C128.571976,109.352509 129.604919,116.880707 126.096840,122.290352 
	C121.981194,128.636856 113.566017,130.401566 107.263428,126.239807 
	C100.452400,121.742310 99.439682,113.880440 104.934860,105.934395 
z"/>
<path fill="#1078BA" opacity="1.000000" stroke="none" 
	d="
M178.089203,128.070740 
	C169.251770,129.014755 162.933929,124.506508 161.814133,116.801376 
	C160.830994,110.036636 165.857849,103.230904 172.851868,101.857635 
	C179.855408,100.482498 186.787094,105.228241 188.452850,112.538788 
	C189.994598,119.305183 185.977921,125.523636 178.089203,128.070740 
z"/>
<path fill="#0E77BA" opacity="1.000000" stroke="none" 
	d="
M122.284454,97.815605 
	C115.375671,91.063606 114.950211,82.716980 120.918488,77.101845 
	C126.486687,71.863113 135.466980,72.441711 140.434555,78.359253 
	C144.455460,83.149101 144.494736,90.375961 140.526947,95.357422 
	C136.298157,100.666565 129.751404,101.632866 122.284454,97.815605 
z"/>
<path fill="#0AA1E1" opacity="1.000000" stroke="none" 
	d="
M91.811020,75.689362 
	C97.253403,72.722130 102.329826,72.710846 107.142845,76.101746 
	C111.290985,79.024231 113.040894,83.275665 112.600334,88.235359 
	C112.052521,94.402565 107.718399,98.895355 101.561409,100.142700 
	C96.275299,101.213615 90.372734,98.454750 87.580124,93.607834 
	C84.672287,88.560936 85.311317,82.314247 89.247780,77.847496 
	C89.899940,77.107483 90.740662,76.533661 91.811020,75.689362 
z"/>
<path fill="#0BA1E1" opacity="1.000000" stroke="none" 
	d="
M83.077194,128.539551 
	C74.166275,126.762970 70.018112,122.352318 70.057251,115.098335 
	C70.092590,108.546837 74.434784,103.214363 80.746941,101.970757 
	C88.085663,100.524902 94.838745,104.951431 96.441925,112.258553 
	C98.041199,119.547852 93.782295,126.272255 86.406303,128.062576 
	C85.443649,128.296234 84.447464,128.391724 83.077194,128.539551 
z"/>
<path fill="#16A5E2" opacity="1.000000" stroke="none" 
	d="
M408.584503,63.625381 
	C405.551117,64.276283 402.750977,65.135651 400.101746,64.800873 
	C398.400024,64.585823 395.813324,62.793613 395.584137,61.388500 
	C395.174622,58.878155 395.572327,54.296265 396.831909,53.831581 
	C400.095947,52.627438 404.211273,52.473461 407.571381,53.402508 
	C408.925140,53.776810 409.335602,58.040611 409.876007,60.597546 
	C410.045959,61.401649 409.240631,62.411877 408.584503,63.625381 
z"/>
<path fill="#F8FCFE" opacity="1.000000" stroke="none" 
	d="
M343.999756,118.584671 
	C343.972412,110.316292 343.729431,102.493011 344.110962,94.700317 
	C344.211792,92.639992 345.740662,89.921074 347.459839,88.786652 
	C358.626984,81.417847 371.192780,87.333565 372.046539,100.554413 
	C372.457794,106.922508 372.263794,113.621819 370.709076,119.756851 
	C368.329254,129.147537 353.894653,132.810944 346.811584,126.148781 
	C345.135101,124.571915 344.910370,121.451561 343.999756,118.584671 
z"/>
<path fill="#F8FCFD" opacity="1.000000" stroke="none" 
	d="
M461.856140,107.189919 
	C461.243835,111.888962 461.069916,116.270363 459.895935,120.365036 
	C458.389008,125.620857 454.447632,128.572830 448.877502,128.979492 
	C443.077026,129.402985 438.574402,127.122147 436.387451,121.795044 
	C432.593933,112.554558 432.575531,102.939819 435.542297,93.509918 
	C437.243286,88.103317 441.952911,85.646027 448.172729,85.769264 
	C454.081879,85.886345 458.241089,88.451576 459.860901,94.013802 
	C461.051941,98.103729 461.223969,102.490417 461.856140,107.189919 
z"/>
</svg>