<?xml version="1.0" encoding="UTF-8"?>
<svg id="Layer_1" data-name="Layer 1" xmlns="http://www.w3.org/2000/svg" version="1.1" viewBox="0 0 476 152.7">
  <defs>
    <style>
      .cls-1 {
        fill: #1179bb;
      }

      .cls-1, .cls-2, .cls-3, .cls-4, .cls-5, .cls-6, .cls-7, .cls-8, .cls-9, .cls-10, .cls-11, .cls-12, .cls-13, .cls-14 {
        stroke-width: 0px;
      }

      .cls-2 {
        display: none;
        fill: #fdfeff;
      }

      .cls-3 {
        fill: #0da2e1;
      }

      .cls-4 {
        fill: #0e77ba;
      }

      .cls-5 {
        fill: #1078ba;
      }

      .cls-6 {
        fill: #0aa1e1;
      }

      .cls-7 {
        fill: #0f78bb;
      }

      .cls-8 {
        fill: #0ba1e1;
      }

      .cls-9 {
        fill: #0ca1e1;
      }

      .cls-10 {
        fill: #16a5e2;
      }

      .cls-11 {
        fill: #0da2e2;
      }

      .cls-12 {
        fill: #0fa3e2;
      }

      .cls-13 {
        fill: #0f78ba;
      }

      .cls-14 {
        fill: #069fe1;
      }
    </style>
  </defs>
  <path class="cls-2" d="M338.5,151H0V9.7h475.7v141.3h-137.1M270.2,85.5c0,4.2,0,8.3.2,12.5.7,10.4,5.4,16.8,15.5,18.6,6.7,1.2,13.9,1,20.7.2,9.1-1.1,14.7-7.2,17.5-15.8,3-9.4,3-19.1.9-28.6-2.8-12.6-9.5-18.4-22.6-19.2-5.8-.4-11.8.6-18.4,1v-30.4h-13.7c0,20.6,0,40.7,0,61.8M184.1,109.5c3.7,7.6,9.5,9.6,18.1,6.1-.4-1.1-.8-2.2-1.3-3.2-5.4-10.7-10.6-21.5-16.3-32-2.1-3.9-1.8-6.5,1.5-9.4,4.4-4,8.5-8.5,12.6-12.8,1.1-1.1,2-2.3,3.2-3.7-9.3-1.8-16.9-1.2-21.9,7.2-1.3,2.2-3.4,4-5.2,6-3,3.4-6.1,6.8-9.2,10.1-.4-.2-.7-.3-1.1-.5V23.2c-2.9,0-5.2,0-7.4,0q-6.6,0-6.6,6.4c0,25.8,0,51.6,0,77.5,0,10.9-2.3,9.6,10.3,9.7.2,0,.4,0,.5,0,1.1-1.1,2.9-2.1,3-3.3.4-4.6.6-9.4,0-14-.8-6.7,3.6-9.7,8.3-13.5,3.9,8,7.5,15.4,11.5,23.5M363.4,104.9c6.7,16,34,15.9,43.1,6.8,3.4-3.4,6-8.1,7.4-12.7,2.8-9,2.5-18.4.3-27.6-2.2-9.2-7.6-16-17.1-17.3-6.9-1-14.2-.5-21.1.8-7.4,1.3-12,6.9-14.1,14.1-3.5,11.9-3.2,23.6,1.5,36M214.4,110c6.3,7.6,14.9,7.9,23.7,7.6,14.2-.5,21.7-8.2,21.9-22.4.1-12.3,0-24.7,0-37,0-1.3-.3-2.5-.4-4.2-2.6,0-4.9.3-7.2,0-5.1-.7-6.5,1.3-6.3,6.3.4,11.5.2,23,0,34.5-.1,8.6-3.7,12.2-11.1,12.2-7.7,0-10.6-3.3-10.9-12.2,0-1.5,0-3,0-4.5,0-10.7,0-21.3,0-32,0-1.4-1.2-3.9-2.2-4-3.7-.5-7.5-.2-11.4-.2,0,15.7-.2,30.7.2,45.7,0,3.3,2.3,6.5,3.9,10.3M453.2,116.8c12.7-1.5,19.3-9.1,18.8-21.8-.4-10.4-8.9-17.7-20.8-17.9-4,0-8,.2-12-.1-1.8-.2-4-1.1-5-2.4-3-3.9-.2-8.6,5.2-8.8,5.9-.2,11.9,0,18.4,0,0-2.7-.2-4.8,0-6.9.4-3.6-.8-5.1-4.7-4.9-5.1.3-10.3,0-15.5.1-9.8.3-16.7,7.5-16.7,17,0,9.5,7.9,17.6,17.4,17.7,4.8,0,9.7,0,14.5,0,4.9.2,7.5,3.4,7.3,8.2-.3,4.9-3.1,7.5-8.7,7.5-10,0-19.9,0-30,0v12.3c10.5,0,20.6,0,31.7,0M335.9,97.5v19.1h13.3c.1-2.2.4-4.1.4-6.1,0-15.1.2-30.2,0-45.4-.2-12.8,2.7-11.1-11.9-11-.4,0-.9.4-1.8.7,0,13.8,0,27.7,0,42.7M26.4,115c-3,5.8-2,11,2.3,15.6,3.5,3.9,9.5,5.1,14.2,3.3,5.6-2.2,9.1-7.4,8.9-13.2-.2-5.4-4-10.5-8.9-12.2-6.1-2.1-11.6,0-16.5,6.4M98,77.5c7,1.5,12.4-.4,15.7-5.6,3-4.7,2.8-10.6-.5-15-3.5-4.7-8.8-6.5-14.6-5-5.4,1.4-9.5,6.1-9.8,11.9-.3,6.3,2.7,10.8,9.2,13.6M96.1,46.6c4.3-4.3,5.5-9.4,3.2-15.1-2-4.9-5.9-7.6-11-8.2-5.7-.7-11.5,2.8-13.7,7.9-2.3,5.4-.9,11.8,3.5,15.5,5,4.3,11.1,4.4,18-.2M44.7,84.2c-5.2,7.7-4.2,15.5,2.6,20,6.3,4.2,14.7,2.4,18.8-3.9,3.5-5.4,2.5-12.9-2.4-17.3-5.2-4.7-12-4.5-19,1.2M118.5,106c7.5-2.5,11.5-8.7,10-15.5-1.7-7.3-8.6-12.1-15.6-10.7-7,1.4-12,8.2-11,14.9,1.1,7.7,7.4,12.2,16.7,11.2M62.6,76c7.1,3.6,13.7,2.7,17.9-2.6,4-5,3.9-12.2,0-17-5-5.9-13.9-6.5-19.5-1.3-6,5.6-5.5,14,1.7,20.9M31.5,53.8c-.8.7-1.6,1.2-2.2,2-3.9,4.5-4.6,10.7-1.7,15.8,2.8,4.8,8.7,7.6,14,6.5,6.2-1.2,10.5-5.7,11-11.9.4-5-1.3-9.2-5.5-12.1-4.8-3.4-9.9-3.4-15.6-.2M23.5,106.5c1-.2,2-.3,2.9-.5,7.4-1.8,11.6-8.5,10-15.8-1.6-7.3-8.4-11.7-15.7-10.3-6.3,1.2-10.7,6.6-10.7,13.1,0,7.3,4.1,11.7,13.4,13.5M348.9,41.3c.4-.9,1.2-1.9,1-2.7-.5-2.6-1-6.8-2.3-7.2-3.4-.9-7.5-.8-10.7.4-1.3.5-1.7,5-1.2,7.6.2,1.4,2.8,3.2,4.5,3.4,2.6.3,5.4-.5,8.8-1.5Z"/>
  <path class="cls-3" d="M270.2,85c0-20.6,0-40.7,0-61.3h13.7v30.4c6.7-.4,12.6-1.4,18.4-1,13.1.9,19.8,6.6,22.6,19.2,2.1,9.5,2.2,19.2-.9,28.6-2.8,8.6-8.3,14.7-17.5,15.8-6.8.8-14,1-20.7-.2-10.1-1.8-14.8-8.2-15.5-18.6-.3-4.1-.1-8.3-.2-13M284,97c.9,2.4,1.1,5.5,2.8,7.1,7.1,6.7,21.5,3,23.9-6.4,1.6-6.1,1.7-12.8,1.3-19.2-.9-13.2-13.4-19.1-24.6-11.8-1.7,1.1-3.2,3.9-3.3,5.9-.4,7.8-.1,15.6,0,24.3Z"/>
  <path class="cls-6" d="M183.9,109.2c-3.8-7.8-7.4-15.2-11.3-23.2-4.7,3.8-9.1,6.8-8.3,13.5.6,4.6.3,9.3,0,14,0,1.2-2,2.2-3,3.3,0,0-.3,0-.5,0-12.7-.1-10.3,1.2-10.3-9.7-.1-25.8,0-51.6,0-77.5q0-6.4,6.6-6.4c2.3,0,4.6,0,7.4,0v54.2c.4.2.7.3,1.1.5,3.1-3.4,6.1-6.7,9.2-10.1,1.8-2,3.9-3.8,5.2-6,5-8.4,12.6-9.1,21.9-7.2-1.2,1.4-2.1,2.6-3.2,3.7-4.2,4.3-8.2,8.8-12.6,12.8-3.3,3-3.6,5.5-1.5,9.4,5.7,10.5,10.9,21.3,16.3,32,.5,1,.8,2.1,1.3,3.2-8.5,3.5-14.4,1.4-18.2-6.5Z"/>
  <path class="cls-9" d="M363.3,104.5c-4.5-12-4.8-23.7-1.3-35.6,2.1-7.2,6.6-12.8,14.1-14.1,6.9-1.2,14.2-1.7,21.1-.8,9.5,1.3,14.9,8.1,17.1,17.3,2.2,9.2,2.5,18.6-.3,27.6-1.4,4.6-4,9.3-7.4,12.7-9.1,9.1-36.4,9.2-43.3-7.2M401.9,84.7c-.6-4.3-.8-8.6-2-12.7-1.6-5.6-5.8-8.1-11.7-8.2-6.2-.1-10.9,2.3-12.6,7.7-3,9.4-2.9,19,.8,28.3,2.2,5.3,6.7,7.6,12.5,7.2,5.6-.4,9.5-3.4,11-8.6,1.2-4.1,1.3-8.5,2-13.6Z"/>
  <path class="cls-11" d="M214.2,109.7c-1.4-3.6-3.6-6.8-3.7-10-.4-15-.2-29.9-.2-45.7,3.9,0,7.7-.3,11.4.2.9.1,2.1,2.6,2.2,4,.2,10.7,0,21.3,0,32,0,1.5,0,3,0,4.5.3,8.9,3.3,12.2,10.9,12.2,7.5,0,11-3.6,11.1-12.2.2-11.5.3-23,0-34.5-.2-5.1,1.2-7.1,6.3-6.3,2.3.3,4.6,0,7.2,0,.2,1.7.4,3,.4,4.2,0,12.3.1,24.7,0,37-.1,14.2-7.7,21.9-21.9,22.4-8.8.3-17.4,0-23.9-7.9Z"/>
  <path class="cls-12" d="M452.7,116.8c-10.6,0-20.7,0-31.2,0v-12.3c10.1,0,20.1,0,30,0,5.6,0,8.4-2.6,8.7-7.5.3-4.8-2.4-8-7.3-8.2-4.8-.2-9.7,0-14.5,0-9.5-.2-17.3-8.2-17.4-17.7,0-9.5,6.9-16.6,16.7-17,5.2-.2,10.3.2,15.5-.1,3.9-.2,5.1,1.2,4.7,4.9-.2,2.1,0,4.2,0,6.9-6.5,0-12.5-.2-18.4,0-5.5.2-8.3,4.9-5.2,8.8,1,1.3,3.3,2.2,5,2.4,4,.4,8,0,12,.1,11.9.2,20.4,7.5,20.8,17.9.5,12.7-6.1,20.3-19.3,21.8Z"/>
  <path class="cls-14" d="M335.9,97c0-14.4,0-28.3,0-42.2.9-.4,1.3-.7,1.8-.7,14.5,0,11.7-1.8,11.9,11,.2,15.1,0,30.2,0,45.4,0,1.9-.2,3.9-.4,6.1h-13.3c0-6.5,0-12.8,0-19.6Z"/>
  <path class="cls-1" d="M26.6,114.7c4.6-6.2,10.2-8.2,16.3-6.1,4.9,1.7,8.7,6.8,8.9,12.2.2,5.7-3.3,11-8.9,13.2-4.8,1.9-10.7.6-14.2-3.3-4.2-4.6-5.3-9.9-2.1-15.9Z"/>
  <path class="cls-7" d="M97.7,77.4c-6.2-2.7-9.1-7.2-8.9-13.5.2-5.8,4.4-10.5,9.8-11.9,5.8-1.5,11.1.3,14.6,5,3.3,4.4,3.5,10.2.5,15-3.2,5.1-8.7,7.1-16,5.4Z"/>
  <path class="cls-13" d="M95.8,46.8c-6.6,4.3-12.7,4.2-17.7,0-4.3-3.7-5.8-10-3.5-15.5,2.2-5.2,8-8.6,13.7-7.9,5.1.6,9,3.2,11,8.2,2.2,5.7,1,10.7-3.5,15.3Z"/>
  <path class="cls-13" d="M44.9,83.9c6.8-5.4,13.5-5.6,18.8-.9,4.8,4.3,5.9,11.9,2.4,17.3-4.1,6.3-12.5,8.1-18.8,3.9-6.8-4.5-7.8-12.4-2.3-20.3Z"/>
  <path class="cls-5" d="M118.1,106c-8.8.9-15.2-3.6-16.3-11.3-1-6.8,4-13.6,11-14.9,7-1.4,13.9,3.4,15.6,10.7,1.5,6.8-2.5,13-10.4,15.5Z"/>
  <path class="cls-4" d="M62.3,75.8c-6.9-6.8-7.3-15.1-1.4-20.7,5.6-5.2,14.5-4.7,19.5,1.3,4,4.8,4.1,12,0,17-4.2,5.3-10.8,6.3-18.2,2.5Z"/>
  <path class="cls-6" d="M31.8,53.6c5.4-3,10.5-3,15.3.4,4.1,2.9,5.9,7.2,5.5,12.1-.5,6.2-4.9,10.7-11,11.9-5.3,1.1-11.2-1.7-14-6.5-2.9-5-2.3-11.3,1.7-15.8.7-.7,1.5-1.3,2.6-2.2Z"/>
  <path class="cls-8" d="M23.1,106.5c-8.9-1.8-13.1-6.2-13-13.4,0-6.6,4.4-11.9,10.7-13.1,7.3-1.4,14.1,3,15.7,10.3,1.6,7.3-2.7,14-10,15.8-1,.2-2,.3-3.3.5Z"/>
  <path class="cls-10" d="M348.6,41.6c-3,.7-5.8,1.5-8.5,1.2-1.7-.2-4.3-2-4.5-3.4-.4-2.5,0-7.1,1.2-7.6,3.3-1.2,7.4-1.4,10.7-.4,1.4.4,1.8,4.6,2.3,7.2.2.8-.6,1.8-1.3,3Z"/>
</svg>